<?xml version="1.0" standalone="no"?>
<!DOCTYPE svg PUBLIC "-//W3C//DTD SVG 20010904//EN"
 "http://www.w3.org/TR/2001/REC-SVG-20010904/DTD/svg10.dtd">
<svg version="1.0" xmlns="http://www.w3.org/2000/svg"
 width="524.000000pt" height="524.000000pt" viewBox="0 0 524.000000 524.000000"
 preserveAspectRatio="xMidYMid meet">
<metadata>
Created by potrace 1.14, written by Peter Selinger 2001-2017
</metadata>
<g transform="translate(0.000000,524.000000) scale(0.100000,-0.100000)"
fill="#000000" stroke="none">
<path d="M2621 4870 c-22 -22 -42 -49 -46 -59 -9 -31 -34 -34 -45 -6 -5 14
-14 25 -19 25 -5 0 -12 9 -16 19 -3 11 -13 22 -22 26 -14 5 -14 2 2 -17 11
-13 13 -17 5 -10 -17 15 -44 16 -34 1 5 -8 1 -8 -14 0 -18 10 -20 8 -18 -28 1
-27 -3 -37 -11 -34 -7 3 -11 9 -8 13 3 5 2 11 -3 14 -11 7 -37 -11 -37 -26 0
-8 -13 -13 -30 -14 -49 -2 -52 -3 -58 -24 -3 -13 0 -20 9 -20 8 0 14 -6 14
-14 0 -8 6 -17 13 -19 6 -3 2 -6 -10 -6 -33 -1 -36 -2 -55 -12 -11 -6 -19 -5
-24 3 -4 7 -3 8 4 4 8 -4 10 -2 6 8 -5 12 -9 11 -25 -5 -15 -15 -24 -17 -39
-9 -15 8 -21 6 -29 -9 -9 -16 -4 -21 37 -36 26 -10 41 -20 34 -23 -7 -2 -10
-8 -6 -13 4 -8 -25 -14 -48 -10 -5 0 -8 -3 -8 -7 0 -4 -10 -8 -21 -9 -31 -3
-50 -23 -21 -23 12 0 22 -6 22 -12 0 -9 4 -8 10 2 8 13 11 13 19 1 5 -8 14
-10 22 -5 12 7 12 5 0 -9 -7 -9 -17 -14 -22 -11 -5 2 -16 -5 -26 -17 -10 -12
-24 -28 -32 -36 -13 -14 -10 -15 30 -10 36 5 41 4 26 -6 -11 -7 -33 -24 -50
-39 -18 -15 -45 -35 -62 -43 -44 -23 -203 -130 -215 -145 -3 -3 -21 -17 -40
-30 -19 -14 -45 -35 -56 -47 -12 -13 -24 -23 -27 -23 -12 0 -276 -268 -270
-274 4 -3 2 -6 -4 -6 -12 0 -110 -120 -203 -250 -22 -30 -44 -59 -48 -65 -4
-5 -23 -32 -42 -60 -19 -27 -38 -51 -42 -53 -5 -2 -8 -8 -8 -12 0 -5 -14 -24
-31 -42 -16 -18 -40 -46 -52 -62 -12 -16 -30 -37 -39 -47 -10 -11 -18 -23 -18
-28 0 -5 -4 -11 -9 -13 -12 -4 -141 -176 -141 -188 0 -5 -13 -31 -28 -57 -15
-26 -36 -70 -47 -97 -10 -28 -42 -91 -70 -140 -134 -232 -221 -433 -270 -626
-2 -5 -14 -67 -22 -105 -5 -27 -4 -224 1 -255 3 -14 7 -42 10 -62 18 -123 54
-227 131 -385 60 -122 194 -323 216 -323 5 0 8 -4 6 -8 -1 -5 22 -33 51 -62
28 -30 52 -59 52 -66 0 -20 -47 -118 -67 -139 -10 -11 -29 -33 -41 -50 -31
-39 -83 -94 -170 -178 -63 -60 -115 -139 -115 -174 0 -7 -4 -13 -8 -13 -3 0
-9 -9 -12 -20 -5 -20 0 -20 2193 -20 l2199 0 -8 28 c-4 15 -6 32 -4 38 10 29
-39 92 -177 229 -206 204 -240 238 -240 250 0 6 35 37 77 70 123 96 231 207
301 312 107 157 176 338 200 523 12 100 3 373 -13 400 -4 7 -9 26 -11 43 -7
59 -27 126 -74 242 -29 73 -114 246 -132 270 -37 48 -103 156 -140 231 -51
103 -170 296 -205 334 -13 14 -23 28 -23 32 0 4 -10 18 -22 31 -120 125 -238
262 -238 275 0 6 -3 12 -7 14 -5 2 -33 32 -63 67 -64 76 -273 285 -384 386
-43 39 -101 91 -129 118 -29 26 -60 50 -69 53 -10 3 -18 9 -18 13 0 8 -70 55
-181 122 -30 18 -71 50 -91 71 l-38 38 37 -6 c37 -6 37 -6 21 18 -8 12 -26 29
-39 35 -21 11 -19 18 4 14 5 -1 6 3 2 9 -3 5 -12 10 -20 10 -7 0 -15 7 -19 15
-3 8 -1 15 4 15 6 0 10 9 10 21 0 13 4 18 13 13 8 -5 9 -4 2 3 -5 5 -29 16
-52 23 -45 14 -57 30 -23 30 15 0 19 6 17 30 -2 32 3 30 -100 33 -24 1 -27 4
-22 22 12 39 10 58 -7 61 -9 1 -15 -3 -12 -10 6 -16 -45 -19 -64 -4 -17 15
-62 18 -79 5 -9 -7 -13 -5 -13 6 0 9 9 21 21 27 16 9 18 14 8 26 -6 8 -7 14
-2 14 5 0 9 9 9 19 0 18 -2 18 -28 5 -14 -8 -30 -18 -33 -24 -3 -5 -15 -15
-26 -21 -18 -9 -20 -8 -19 13 1 13 2 35 1 51 -2 40 -32 35 -80 -13z"/>
<path d="M2170 4689 c0 -5 5 -7 10 -4 6 3 10 8 10 11 0 2 -4 4 -10 4 -5 0 -10
-5 -10 -11z"/>
</g>
</svg>
